<svg width="20" height="20" viewBox="0 0 20 20" fill="none" xmlns="http://www.w3.org/2000/svg">
    <path fill-rule="evenodd" clip-rule="evenodd" d="M10.005 10.009c2.27 0 4.121-1.908 4.121-4.23a4.094 4.094 0 00-4.12-4.112 4.133 4.133 0 00-4.122 4.13c.01 2.313 1.85 4.212 4.121 4.212zm0-1.359c-1.393 0-2.585-1.26-2.585-2.853 0-1.566 1.173-2.771 2.585-2.771 1.422 0 2.585 1.187 2.585 2.753 0 1.593-1.182 2.871-2.585 2.871zm5.991 9.683c1.584 0 2.338-.45 2.338-1.44 0-2.357-3.158-5.768-8.329-5.768-5.18 0-8.338 3.41-8.338 5.768 0 .99.754 1.44 2.337 1.44h11.992zm.458-1.358H3.556c-.248 0-.353-.064-.353-.253 0-1.475 2.423-4.238 6.802-4.238 4.37 0 6.793 2.763 6.793 4.239 0 .189-.096.252-.344.252z" fill="#fff"/>
</svg>
